<?xml version="1.0" standalone="no"?>
<!DOCTYPE svg PUBLIC "-//W3C//DTD SVG 20010904//EN"
 "http://www.w3.org/TR/2001/REC-SVG-20010904/DTD/svg10.dtd">
<svg version="1.0" xmlns="http://www.w3.org/2000/svg"
 width="633.000000pt" height="633.000000pt" viewBox="0 0 633.000000 633.000000"
 preserveAspectRatio="xMidYMid meet">
<metadata>
Created by potrace 1.11, written by Peter Selinger 2001-2013
</metadata>
<g transform="translate(0.000000,633.000000) scale(0.100000,-0.100000)"
fill="#000000" stroke="none">
<path d="M3068 6067 c-46 -50 -107 -117 -134 -147 -27 -31 -80 -91 -119 -134
-38 -44 -74 -84 -80 -90 -5 -6 -30 -34 -55 -62 -25 -27 -76 -85 -115 -129 -38
-44 -79 -89 -90 -100 -11 -12 -33 -37 -49 -56 -15 -18 -49 -57 -75 -85 -25
-28 -75 -84 -111 -124 -36 -41 -90 -101 -120 -135 -30 -33 -82 -91 -115 -129
-33 -38 -73 -84 -90 -102 -36 -40 -69 -76 -160 -179 -38 -44 -90 -102 -115
-129 -25 -28 -49 -56 -55 -62 -5 -6 -40 -44 -76 -85 -36 -41 -108 -121 -159
-179 -52 -58 -99 -110 -104 -116 -6 -6 -38 -42 -71 -80 -76 -87 -236 -266
-249 -280 -6 -6 -38 -42 -71 -79 -33 -38 -71 -80 -83 -94 -13 -14 -46 -51 -72
-81 -26 -30 -59 -67 -72 -81 -78 -86 -96 -107 -119 -136 l-26 -32 23 -68 c13
-38 73 -223 135 -413 61 -190 133 -410 159 -490 26 -80 100 -307 165 -505 64
-198 140 -431 168 -517 l51 -158 956 -449 c525 -247 963 -453 972 -456 11 -4
112 40 280 122 393 193 1084 527 1155 559 34 15 59 32 56 37 -3 6 -1 7 5 3 12
-7 92 29 103 46 3 5 9 9 13 9 20 -3 26 0 20 11 -4 6 -3 8 4 5 13 -9 134 48
124 58 -4 5 -2 5 4 2 15 -9 66 17 56 28 -4 5 -2 5 5 1 16 -9 64 14 56 27 -4 6
0 8 10 4 33 -12 67 38 156 233 49 107 114 249 146 315 31 66 57 125 58 130 1
6 5 12 8 15 4 3 40 77 82 165 41 88 101 214 132 280 102 213 202 430 207 445
2 8 -6 23 -18 35 -12 11 -116 151 -231 310 -115 160 -393 543 -616 853 -224
309 -407 567 -407 572 0 6 -6 10 -13 10 -7 0 -18 10 -26 23 -28 44 -1261 1683
-1294 1719 l-34 38 -85 -93z"/>
</g>
</svg>
